<svg width="248" height="115" viewBox="0 0 248 115" fill="none" xmlns="http://www.w3.org/2000/svg">
<rect width="248" height="115" fill="black" fill-opacity="0.8"/>
<path d="M62.7812 33.5L71.3438 49.375L79.9062 33.5H90.625L77.4062 56.0625L90.9688 79H80.1562L71.3438 62.8125L62.5312 79H51.6562L65.25 56.0625L52 33.5H62.7812ZM139.844 48.375V55.5H111.812V48.375H139.844ZM139.844 61.875V69H111.812V61.875H139.844Z" fill="white"/>
<path d="M171.844 58.2812L164.656 56.5625L167.25 33.5H192.812V40.7812H174.656L173.531 50.875C174.135 50.5208 175.052 50.1458 176.281 49.75C177.51 49.3333 178.885 49.125 180.406 49.125C182.615 49.125 184.573 49.4688 186.281 50.1562C187.99 50.8438 189.438 51.8438 190.625 53.1562C191.833 54.4688 192.75 56.0729 193.375 57.9688C194 59.8646 194.312 62.0104 194.312 64.4062C194.312 66.4271 194 68.3542 193.375 70.1875C192.75 72 191.802 73.625 190.531 75.0625C189.26 76.4792 187.667 77.5938 185.75 78.4062C183.833 79.2188 181.562 79.625 178.938 79.625C176.979 79.625 175.083 79.3333 173.25 78.75C171.438 78.1667 169.802 77.3021 168.344 76.1562C166.906 75.0104 165.75 73.625 164.875 72C164.021 70.3542 163.573 68.4792 163.531 66.375H172.469C172.594 67.6667 172.927 68.7812 173.469 69.7188C174.031 70.6354 174.771 71.3438 175.688 71.8438C176.604 72.3438 177.677 72.5938 178.906 72.5938C180.052 72.5938 181.031 72.375 181.844 71.9375C182.656 71.5 183.312 70.8958 183.812 70.125C184.312 69.3333 184.677 68.4167 184.906 67.375C185.156 66.3125 185.281 65.1667 185.281 63.9375C185.281 62.7083 185.135 61.5938 184.844 60.5938C184.552 59.5938 184.104 58.7292 183.5 58C182.896 57.2708 182.125 56.7083 181.188 56.3125C180.271 55.9167 179.198 55.7188 177.969 55.7188C176.302 55.7188 175.01 55.9792 174.094 56.5C173.198 57.0208 172.448 57.6146 171.844 58.2812Z" fill="#FF0000"/>
</svg>
