<svg width="247" height="75" viewBox="0 0 247 75" fill="none" xmlns="http://www.w3.org/2000/svg">
<path d="M13 25.1875V59H3.96875V25.1875H13ZM3.40625 16.375C3.40625 15.0625 3.86458 13.9792 4.78125 13.125C5.69792 12.2708 6.92708 11.8438 8.46875 11.8438C9.98958 11.8438 11.2083 12.2708 12.125 13.125C13.0625 13.9792 13.5312 15.0625 13.5312 16.375C13.5312 17.6875 13.0625 18.7708 12.125 19.625C11.2083 20.4792 9.98958 20.9062 8.46875 20.9062C6.92708 20.9062 5.69792 20.4792 4.78125 19.625C3.86458 18.7708 3.40625 17.6875 3.40625 16.375ZM29.25 32.4062V59H20.25V25.1875H28.6875L29.25 32.4062ZM27.9375 40.9062H25.5C25.5 38.4062 25.8229 36.1562 26.4688 34.1562C27.1146 32.1354 28.0208 30.4167 29.1875 29C30.3542 27.5625 31.7396 26.4688 33.3438 25.7188C34.9688 24.9479 36.7812 24.5625 38.7812 24.5625C40.3646 24.5625 41.8125 24.7917 43.125 25.25C44.4375 25.7083 45.5625 26.4375 46.5 27.4375C47.4583 28.4375 48.1875 29.7604 48.6875 31.4062C49.2083 33.0521 49.4688 35.0625 49.4688 37.4375V59H40.4062V37.4062C40.4062 35.9062 40.1979 34.7396 39.7812 33.9062C39.3646 33.0729 38.75 32.4896 37.9375 32.1562C37.1458 31.8021 36.1667 31.625 35 31.625C33.7917 31.625 32.7396 31.8646 31.8438 32.3438C30.9688 32.8229 30.2396 33.4896 29.6562 34.3438C29.0938 35.1771 28.6667 36.1562 28.375 37.2812C28.0833 38.4062 27.9375 39.6146 27.9375 40.9062ZM72.875 25.1875V31.5625H53.1875V25.1875H72.875ZM58.0625 16.8438H67.0625V48.8125C67.0625 49.7917 67.1875 50.5417 67.4375 51.0625C67.7083 51.5833 68.1042 51.9479 68.625 52.1562C69.1458 52.3438 69.8021 52.4375 70.5938 52.4375C71.1562 52.4375 71.6562 52.4167 72.0938 52.375C72.5521 52.3125 72.9375 52.25 73.25 52.1875L73.2812 58.8125C72.5104 59.0625 71.6771 59.2604 70.7812 59.4062C69.8854 59.5521 68.8958 59.625 67.8125 59.625C65.8333 59.625 64.1042 59.3021 62.625 58.6562C61.1667 57.9896 60.0417 56.9271 59.25 55.4688C58.4583 54.0104 58.0625 52.0938 58.0625 49.7188V16.8438Z" fill="#6068FF"/>
<path d="M101.188 25.1875L106.781 35.4688L112.531 25.1875H122.125L112.562 41.7188L122.562 59H112.938L106.844 48.125L100.75 59H91.125L101.125 41.7188L91.5625 25.1875H101.188ZM171.219 28.375V35.5H143.188V28.375H171.219ZM171.219 41.875V49H143.188V41.875H171.219Z" fill="#FFFDFD"/>
<path d="M203.219 38.2812L196.031 36.5625L198.625 13.5H224.188V20.7812H206.031L204.906 30.875C205.51 30.5208 206.427 30.1458 207.656 29.75C208.885 29.3333 210.26 29.125 211.781 29.125C213.99 29.125 215.948 29.4688 217.656 30.1562C219.365 30.8438 220.812 31.8438 222 33.1562C223.208 34.4688 224.125 36.0729 224.75 37.9688C225.375 39.8646 225.688 42.0104 225.688 44.4062C225.688 46.4271 225.375 48.3542 224.75 50.1875C224.125 52 223.177 53.625 221.906 55.0625C220.635 56.4792 219.042 57.5938 217.125 58.4062C215.208 59.2188 212.938 59.625 210.312 59.625C208.354 59.625 206.458 59.3333 204.625 58.75C202.812 58.1667 201.177 57.3021 199.719 56.1562C198.281 55.0104 197.125 53.625 196.25 52C195.396 50.3542 194.948 48.4792 194.906 46.375H203.844C203.969 47.6667 204.302 48.7812 204.844 49.7188C205.406 50.6354 206.146 51.3438 207.062 51.8438C207.979 52.3438 209.052 52.5938 210.281 52.5938C211.427 52.5938 212.406 52.375 213.219 51.9375C214.031 51.5 214.688 50.8958 215.188 50.125C215.688 49.3333 216.052 48.4167 216.281 47.375C216.531 46.3125 216.656 45.1667 216.656 43.9375C216.656 42.7083 216.51 41.5938 216.219 40.5938C215.927 39.5938 215.479 38.7292 214.875 38C214.271 37.2708 213.5 36.7083 212.562 36.3125C211.646 35.9167 210.573 35.7188 209.344 35.7188C207.677 35.7188 206.385 35.9792 205.469 36.5C204.573 37.0208 203.823 37.6146 203.219 38.2812Z" fill="#E74043"/>
<path d="M231.75 28.875C231.75 27.5417 232.208 26.4271 233.125 25.5312C234.062 24.6354 235.302 24.1875 236.844 24.1875C238.385 24.1875 239.615 24.6354 240.531 25.5312C241.469 26.4271 241.938 27.5417 241.938 28.875C241.938 30.2083 241.469 31.3229 240.531 32.2188C239.615 33.1146 238.385 33.5625 236.844 33.5625C235.302 33.5625 234.062 33.1146 233.125 32.2188C232.208 31.3229 231.75 30.2083 231.75 28.875ZM241.062 51.4062L241.031 57.4375C241.031 59.75 240.448 62.0833 239.281 64.4375C238.135 66.7917 236.677 68.7188 234.906 70.2188L230.219 67.8125C230.74 66.8542 231.25 65.8958 231.75 64.9375C232.25 63.9792 232.667 62.9271 233 61.7812C233.333 60.6354 233.5 59.3333 233.5 57.875V51.4062H241.062Z" fill="white"/>
</svg>
