<svg width="247" height="75" viewBox="0 0 247 75" fill="none" xmlns="http://www.w3.org/2000/svg">
<path d="M13 25.1875V59H3.96875V25.1875H13ZM3.40625 16.375C3.40625 15.0625 3.86458 13.9792 4.78125 13.125C5.69792 12.2708 6.92708 11.8438 8.46875 11.8438C9.98958 11.8438 11.2083 12.2708 12.125 13.125C13.0625 13.9792 13.5312 15.0625 13.5312 16.375C13.5312 17.6875 13.0625 18.7708 12.125 19.625C11.2083 20.4792 9.98958 20.9062 8.46875 20.9062C6.92708 20.9062 5.69792 20.4792 4.78125 19.625C3.86458 18.7708 3.40625 17.6875 3.40625 16.375ZM29.25 32.4062V59H20.25V25.1875H28.6875L29.25 32.4062ZM27.9375 40.9062H25.5C25.5 38.4062 25.8229 36.1562 26.4688 34.1562C27.1146 32.1354 28.0208 30.4167 29.1875 29C30.3542 27.5625 31.7396 26.4688 33.3438 25.7188C34.9688 24.9479 36.7812 24.5625 38.7812 24.5625C40.3646 24.5625 41.8125 24.7917 43.125 25.25C44.4375 25.7083 45.5625 26.4375 46.5 27.4375C47.4583 28.4375 48.1875 29.7604 48.6875 31.4062C49.2083 33.0521 49.4688 35.0625 49.4688 37.4375V59H40.4062V37.4062C40.4062 35.9062 40.1979 34.7396 39.7812 33.9062C39.3646 33.0729 38.75 32.4896 37.9375 32.1562C37.1458 31.8021 36.1667 31.625 35 31.625C33.7917 31.625 32.7396 31.8646 31.8438 32.3438C30.9688 32.8229 30.2396 33.4896 29.6562 34.3438C29.0938 35.1771 28.6667 36.1562 28.375 37.2812C28.0833 38.4062 27.9375 39.6146 27.9375 40.9062ZM72.875 25.1875V31.5625H53.1875V25.1875H72.875ZM58.0625 16.8438H67.0625V48.8125C67.0625 49.7917 67.1875 50.5417 67.4375 51.0625C67.7083 51.5833 68.1042 51.9479 68.625 52.1562C69.1458 52.3438 69.8021 52.4375 70.5938 52.4375C71.1562 52.4375 71.6562 52.4167 72.0938 52.375C72.5521 52.3125 72.9375 52.25 73.25 52.1875L73.2812 58.8125C72.5104 59.0625 71.6771 59.2604 70.7812 59.4062C69.8854 59.5521 68.8958 59.625 67.8125 59.625C65.8333 59.625 64.1042 59.3021 62.625 58.6562C61.1667 57.9896 60.0417 56.9271 59.25 55.4688C58.4583 54.0104 58.0625 52.0938 58.0625 49.7188V16.8438Z" fill="#6068FF"/>
<path d="M107.906 52.5938C109.01 52.5938 109.99 52.3854 110.844 51.9688C111.698 51.5312 112.365 50.9271 112.844 50.1562C113.344 49.3646 113.604 48.4375 113.625 47.375H122.094C122.073 49.75 121.438 51.8646 120.188 53.7188C118.938 55.5521 117.26 57 115.156 58.0625C113.052 59.1042 110.698 59.625 108.094 59.625C105.469 59.625 103.177 59.1875 101.219 58.3125C99.2812 57.4375 97.6667 56.2292 96.375 54.6875C95.0833 53.125 94.1146 51.3125 93.4688 49.25C92.8229 47.1667 92.5 44.9375 92.5 42.5625V41.6562C92.5 39.2604 92.8229 37.0312 93.4688 34.9688C94.1146 32.8854 95.0833 31.0729 96.375 29.5312C97.6667 27.9688 99.2812 26.75 101.219 25.875C103.156 25 105.427 24.5625 108.031 24.5625C110.802 24.5625 113.229 25.0938 115.312 26.1562C117.417 27.2188 119.062 28.7396 120.25 30.7188C121.458 32.6771 122.073 35 122.094 37.6875H113.625C113.604 36.5625 113.365 35.5417 112.906 34.625C112.469 33.7083 111.823 32.9792 110.969 32.4375C110.135 31.875 109.104 31.5938 107.875 31.5938C106.562 31.5938 105.49 31.875 104.656 32.4375C103.823 32.9792 103.177 33.7292 102.719 34.6875C102.26 35.625 101.938 36.6979 101.75 37.9062C101.583 39.0938 101.5 40.3438 101.5 41.6562V42.5625C101.5 43.875 101.583 45.1354 101.75 46.3438C101.917 47.5521 102.229 48.625 102.688 49.5625C103.167 50.5 103.823 51.2396 104.656 51.7812C105.49 52.3229 106.573 52.5938 107.906 52.5938ZM172.031 28.375V35.5H144V28.375H172.031ZM172.031 41.875V49H144V41.875H172.031Z" fill="#FFFDFD"/>
<path d="M226.469 13.5V18.3438L208.875 59H199.375L216.969 20.5312H194.312V13.5H226.469Z" fill="#E74043"/>
<path d="M232.562 28.875C232.562 27.5417 233.021 26.4271 233.938 25.5312C234.875 24.6354 236.115 24.1875 237.656 24.1875C239.198 24.1875 240.427 24.6354 241.344 25.5312C242.281 26.4271 242.75 27.5417 242.75 28.875C242.75 30.2083 242.281 31.3229 241.344 32.2188C240.427 33.1146 239.198 33.5625 237.656 33.5625C236.115 33.5625 234.875 33.1146 233.938 32.2188C233.021 31.3229 232.562 30.2083 232.562 28.875ZM241.875 51.4062L241.844 57.4375C241.844 59.75 241.26 62.0833 240.094 64.4375C238.948 66.7917 237.49 68.7188 235.719 70.2188L231.031 67.8125C231.552 66.8542 232.062 65.8958 232.562 64.9375C233.062 63.9792 233.479 62.9271 233.812 61.7812C234.146 60.6354 234.312 59.3333 234.312 57.875V51.4062H241.875Z" fill="white"/>
</svg>
