<svg width="329" height="199" viewBox="0 0 329 199" fill="none" xmlns="http://www.w3.org/2000/svg">
<path d="M35 49.1875V83H25.9688V49.1875H35ZM25.4062 40.375C25.4062 39.0625 25.8646 37.9792 26.7812 37.125C27.6979 36.2708 28.9271 35.8438 30.4688 35.8438C31.9896 35.8438 33.2083 36.2708 34.125 37.125C35.0625 37.9792 35.5312 39.0625 35.5312 40.375C35.5312 41.6875 35.0625 42.7708 34.125 43.625C33.2083 44.4792 31.9896 44.9062 30.4688 44.9062C28.9271 44.9062 27.6979 44.4792 26.7812 43.625C25.8646 42.7708 25.4062 41.6875 25.4062 40.375ZM51.25 56.4062V83H42.25V49.1875H50.6875L51.25 56.4062ZM49.9375 64.9062H47.5C47.5 62.4062 47.8229 60.1562 48.4688 58.1562C49.1146 56.1354 50.0208 54.4167 51.1875 53C52.3542 51.5625 53.7396 50.4688 55.3438 49.7188C56.9688 48.9479 58.7812 48.5625 60.7812 48.5625C62.3646 48.5625 63.8125 48.7917 65.125 49.25C66.4375 49.7083 67.5625 50.4375 68.5 51.4375C69.4583 52.4375 70.1875 53.7604 70.6875 55.4062C71.2083 57.0521 71.4688 59.0625 71.4688 61.4375V83H62.4062V61.4062C62.4062 59.9062 62.1979 58.7396 61.7812 57.9062C61.3646 57.0729 60.75 56.4896 59.9375 56.1562C59.1458 55.8021 58.1667 55.625 57 55.625C55.7917 55.625 54.7396 55.8646 53.8438 56.3438C52.9688 56.8229 52.2396 57.4896 51.6562 58.3438C51.0938 59.1771 50.6667 60.1562 50.375 61.2812C50.0833 62.4062 49.9375 63.6146 49.9375 64.9062ZM94.875 49.1875V55.5625H75.1875V49.1875H94.875ZM80.0625 40.8438H89.0625V72.8125C89.0625 73.7917 89.1875 74.5417 89.4375 75.0625C89.7083 75.5833 90.1042 75.9479 90.625 76.1562C91.1458 76.3438 91.8021 76.4375 92.5938 76.4375C93.1562 76.4375 93.6562 76.4167 94.0938 76.375C94.5521 76.3125 94.9375 76.25 95.25 76.1875L95.2812 82.8125C94.5104 83.0625 93.6771 83.2604 92.7812 83.4062C91.8854 83.5521 90.8958 83.625 89.8125 83.625C87.8333 83.625 86.1042 83.3021 84.625 82.6562C83.1667 81.9896 82.0417 80.9271 81.25 79.4688C80.4583 78.0104 80.0625 76.0938 80.0625 73.7188V40.8438Z" fill="#6068FF"/>
<path d="M134.188 75.375V60.3125C134.188 59.2292 134.01 58.3021 133.656 57.5312C133.302 56.7396 132.75 56.125 132 55.6875C131.271 55.25 130.323 55.0312 129.156 55.0312C128.156 55.0312 127.292 55.2083 126.562 55.5625C125.833 55.8958 125.271 56.3854 124.875 57.0312C124.479 57.6562 124.281 58.3958 124.281 59.25H115.281C115.281 57.8125 115.615 56.4479 116.281 55.1562C116.948 53.8646 117.917 52.7292 119.188 51.75C120.458 50.75 121.969 49.9688 123.719 49.4062C125.49 48.8438 127.469 48.5625 129.656 48.5625C132.281 48.5625 134.615 49 136.656 49.875C138.698 50.75 140.302 52.0625 141.469 53.8125C142.656 55.5625 143.25 57.75 143.25 60.375V74.8438C143.25 76.6979 143.365 78.2188 143.594 79.4062C143.823 80.5729 144.156 81.5938 144.594 82.4688V83H135.5C135.062 82.0833 134.729 80.9375 134.5 79.5625C134.292 78.1667 134.188 76.7708 134.188 75.375ZM135.375 62.4062L135.438 67.5H130.406C129.219 67.5 128.188 67.6354 127.312 67.9062C126.438 68.1771 125.719 68.5625 125.156 69.0625C124.594 69.5417 124.177 70.1042 123.906 70.75C123.656 71.3958 123.531 72.1042 123.531 72.875C123.531 73.6458 123.708 74.3438 124.062 74.9688C124.417 75.5729 124.927 76.0521 125.594 76.4062C126.26 76.7396 127.042 76.9062 127.938 76.9062C129.292 76.9062 130.469 76.6354 131.469 76.0938C132.469 75.5521 133.24 74.8854 133.781 74.0938C134.344 73.3021 134.635 72.5521 134.656 71.8438L137.031 75.6562C136.698 76.5104 136.24 77.3958 135.656 78.3125C135.094 79.2292 134.375 80.0938 133.5 80.9062C132.625 81.6979 131.573 82.3542 130.344 82.875C129.115 83.375 127.656 83.625 125.969 83.625C123.823 83.625 121.875 83.1979 120.125 82.3438C118.396 81.4688 117.021 80.2708 116 78.75C115 77.2083 114.5 75.4583 114.5 73.5C114.5 71.7292 114.833 70.1562 115.5 68.7812C116.167 67.4062 117.146 66.25 118.438 65.3125C119.75 64.3542 121.385 63.6354 123.344 63.1562C125.302 62.6562 127.573 62.4062 130.156 62.4062H135.375ZM194.906 52.375V59.5H166.875V52.375H194.906ZM194.906 65.875V73H166.875V65.875H194.906Z" fill="#FFFDFD"/>
<path d="M240.375 37.4062V83H231.375V47.7812L220.562 51.2188V44.125L239.406 37.4062H240.375ZM286.312 75.9688V83H255.188V77L269.906 61.2188C271.385 59.5729 272.552 58.125 273.406 56.875C274.26 55.6042 274.875 54.4688 275.25 53.4688C275.646 52.4479 275.844 51.4792 275.844 50.5625C275.844 49.1875 275.615 48.0104 275.156 47.0312C274.698 46.0312 274.021 45.2604 273.125 44.7188C272.25 44.1771 271.167 43.9062 269.875 43.9062C268.5 43.9062 267.312 44.2396 266.312 44.9062C265.333 45.5729 264.583 46.5 264.062 47.6875C263.562 48.875 263.312 50.2188 263.312 51.7188H254.281C254.281 49.0104 254.927 46.5312 256.219 44.2812C257.51 42.0104 259.333 40.2083 261.688 38.875C264.042 37.5208 266.833 36.8438 270.062 36.8438C273.25 36.8438 275.938 37.3646 278.125 38.4062C280.333 39.4271 282 40.9062 283.125 42.8438C284.271 44.7604 284.844 47.0521 284.844 49.7188C284.844 51.2188 284.604 52.6875 284.125 54.125C283.646 55.5417 282.958 56.9583 282.062 58.375C281.188 59.7708 280.125 61.1875 278.875 62.625C277.625 64.0625 276.24 65.5521 274.719 67.0938L266.812 75.9688H286.312ZM250.938 112.406V158H241.938V122.781L231.125 126.219V119.125L249.969 112.406H250.938Z" fill="#E74043"/>
<path d="M292.188 52.875C292.188 51.5417 292.646 50.4271 293.562 49.5312C294.5 48.6354 295.74 48.1875 297.281 48.1875C298.823 48.1875 300.052 48.6354 300.969 49.5312C301.906 50.4271 302.375 51.5417 302.375 52.875C302.375 54.2083 301.906 55.3229 300.969 56.2188C300.052 57.1146 298.823 57.5625 297.281 57.5625C295.74 57.5625 294.5 57.1146 293.562 56.2188C292.646 55.3229 292.188 54.2083 292.188 52.875ZM301.5 75.4062L301.469 81.4375C301.469 83.75 300.885 86.0833 299.719 88.4375C298.573 90.7917 297.115 92.7188 295.344 94.2188L290.656 91.8125C291.177 90.8542 291.688 89.8958 292.188 88.9375C292.688 87.9792 293.104 86.9271 293.438 85.7812C293.771 84.6354 293.938 83.3333 293.938 81.875V75.4062H301.5ZM43.75 150.375V135.312C43.75 134.229 43.5729 133.302 43.2188 132.531C42.8646 131.74 42.3125 131.125 41.5625 130.688C40.8333 130.25 39.8854 130.031 38.7188 130.031C37.7188 130.031 36.8542 130.208 36.125 130.562C35.3958 130.896 34.8333 131.385 34.4375 132.031C34.0417 132.656 33.8438 133.396 33.8438 134.25H24.8438C24.8438 132.812 25.1771 131.448 25.8438 130.156C26.5104 128.865 27.4792 127.729 28.75 126.75C30.0208 125.75 31.5312 124.969 33.2812 124.406C35.0521 123.844 37.0312 123.562 39.2188 123.562C41.8438 123.562 44.1771 124 46.2188 124.875C48.2604 125.75 49.8646 127.062 51.0312 128.812C52.2188 130.562 52.8125 132.75 52.8125 135.375V149.844C52.8125 151.698 52.9271 153.219 53.1562 154.406C53.3854 155.573 53.7188 156.594 54.1562 157.469V158H45.0625C44.625 157.083 44.2917 155.938 44.0625 154.562C43.8542 153.167 43.75 151.771 43.75 150.375ZM44.9375 137.406L45 142.5H39.9688C38.7812 142.5 37.75 142.635 36.875 142.906C36 143.177 35.2812 143.562 34.7188 144.062C34.1562 144.542 33.7396 145.104 33.4688 145.75C33.2188 146.396 33.0938 147.104 33.0938 147.875C33.0938 148.646 33.2708 149.344 33.625 149.969C33.9792 150.573 34.4896 151.052 35.1562 151.406C35.8229 151.74 36.6042 151.906 37.5 151.906C38.8542 151.906 40.0312 151.635 41.0312 151.094C42.0312 150.552 42.8021 149.885 43.3438 149.094C43.9062 148.302 44.1979 147.552 44.2188 146.844L46.5938 150.656C46.2604 151.51 45.8021 152.396 45.2188 153.312C44.6562 154.229 43.9375 155.094 43.0625 155.906C42.1875 156.698 41.1354 157.354 39.9062 157.875C38.6771 158.375 37.2188 158.625 35.5312 158.625C33.3854 158.625 31.4375 158.198 29.6875 157.344C27.9583 156.469 26.5833 155.271 25.5625 153.75C24.5625 152.208 24.0625 150.458 24.0625 148.5C24.0625 146.729 24.3958 145.156 25.0625 143.781C25.7292 142.406 26.7083 141.25 28 140.312C29.3125 139.354 30.9479 138.635 32.9062 138.156C34.8646 137.656 37.1354 137.406 39.7188 137.406H44.9375ZM104.469 127.375V134.5H76.4375V127.375H104.469ZM104.469 140.875V148H76.4375V140.875H104.469ZM146.625 150.375V135.312C146.625 134.229 146.448 133.302 146.094 132.531C145.74 131.74 145.188 131.125 144.438 130.688C143.708 130.25 142.76 130.031 141.594 130.031C140.594 130.031 139.729 130.208 139 130.562C138.271 130.896 137.708 131.385 137.312 132.031C136.917 132.656 136.719 133.396 136.719 134.25H127.719C127.719 132.812 128.052 131.448 128.719 130.156C129.385 128.865 130.354 127.729 131.625 126.75C132.896 125.75 134.406 124.969 136.156 124.406C137.927 123.844 139.906 123.562 142.094 123.562C144.719 123.562 147.052 124 149.094 124.875C151.135 125.75 152.74 127.062 153.906 128.812C155.094 130.562 155.688 132.75 155.688 135.375V149.844C155.688 151.698 155.802 153.219 156.031 154.406C156.26 155.573 156.594 156.594 157.031 157.469V158H147.938C147.5 157.083 147.167 155.938 146.938 154.562C146.729 153.167 146.625 151.771 146.625 150.375ZM147.812 137.406L147.875 142.5H142.844C141.656 142.5 140.625 142.635 139.75 142.906C138.875 143.177 138.156 143.562 137.594 144.062C137.031 144.542 136.615 145.104 136.344 145.75C136.094 146.396 135.969 147.104 135.969 147.875C135.969 148.646 136.146 149.344 136.5 149.969C136.854 150.573 137.365 151.052 138.031 151.406C138.698 151.74 139.479 151.906 140.375 151.906C141.729 151.906 142.906 151.635 143.906 151.094C144.906 150.552 145.677 149.885 146.219 149.094C146.781 148.302 147.073 147.552 147.094 146.844L149.469 150.656C149.135 151.51 148.677 152.396 148.094 153.312C147.531 154.229 146.812 155.094 145.938 155.906C145.062 156.698 144.01 157.354 142.781 157.875C141.552 158.375 140.094 158.625 138.406 158.625C136.26 158.625 134.312 158.198 132.562 157.344C130.833 156.469 129.458 155.271 128.438 153.75C127.438 152.208 126.938 150.458 126.938 148.5C126.938 146.729 127.271 145.156 127.938 143.781C128.604 142.406 129.583 141.25 130.875 140.312C132.188 139.354 133.823 138.635 135.781 138.156C137.74 137.656 140.01 137.406 142.594 137.406H147.812ZM266 127.875C266 126.542 266.458 125.427 267.375 124.531C268.312 123.635 269.552 123.188 271.094 123.188C272.635 123.188 273.865 123.635 274.781 124.531C275.719 125.427 276.188 126.542 276.188 127.875C276.188 129.208 275.719 130.323 274.781 131.219C273.865 132.115 272.635 132.562 271.094 132.562C269.552 132.562 268.312 132.115 267.375 131.219C266.458 130.323 266 129.208 266 127.875ZM275.312 150.406L275.281 156.438C275.281 158.75 274.698 161.083 273.531 163.438C272.385 165.792 270.927 167.719 269.156 169.219L264.469 166.812C264.99 165.854 265.5 164.896 266 163.938C266.5 162.979 266.917 161.927 267.25 160.781C267.583 159.635 267.75 158.333 267.75 156.875V150.406H275.312Z" fill="white"/>
<path d="M208 132.656V140.5H176.812V132.656H208ZM196.688 120.312V153.438H188.156V120.312H196.688Z" fill="#AF3DDC"/>
</svg>
