<svg width="329" height="199" viewBox="0 0 329 199" fill="none" xmlns="http://www.w3.org/2000/svg">
<path d="M53 49.1875V83H43.9688V49.1875H53ZM43.4062 40.375C43.4062 39.0625 43.8646 37.9792 44.7812 37.125C45.6979 36.2708 46.9271 35.8438 48.4688 35.8438C49.9896 35.8438 51.2083 36.2708 52.125 37.125C53.0625 37.9792 53.5312 39.0625 53.5312 40.375C53.5312 41.6875 53.0625 42.7708 52.125 43.625C51.2083 44.4792 49.9896 44.9062 48.4688 44.9062C46.9271 44.9062 45.6979 44.4792 44.7812 43.625C43.8646 42.7708 43.4062 41.6875 43.4062 40.375ZM69.25 56.4062V83H60.25V49.1875H68.6875L69.25 56.4062ZM67.9375 64.9062H65.5C65.5 62.4062 65.8229 60.1562 66.4688 58.1562C67.1146 56.1354 68.0208 54.4167 69.1875 53C70.3542 51.5625 71.7396 50.4688 73.3438 49.7188C74.9688 48.9479 76.7812 48.5625 78.7812 48.5625C80.3646 48.5625 81.8125 48.7917 83.125 49.25C84.4375 49.7083 85.5625 50.4375 86.5 51.4375C87.4583 52.4375 88.1875 53.7604 88.6875 55.4062C89.2083 57.0521 89.4688 59.0625 89.4688 61.4375V83H80.4062V61.4062C80.4062 59.9062 80.1979 58.7396 79.7812 57.9062C79.3646 57.0729 78.75 56.4896 77.9375 56.1562C77.1458 55.8021 76.1667 55.625 75 55.625C73.7917 55.625 72.7396 55.8646 71.8438 56.3438C70.9688 56.8229 70.2396 57.4896 69.6562 58.3438C69.0938 59.1771 68.6667 60.1562 68.375 61.2812C68.0833 62.4062 67.9375 63.6146 67.9375 64.9062ZM112.875 49.1875V55.5625H93.1875V49.1875H112.875ZM98.0625 40.8438H107.062V72.8125C107.062 73.7917 107.188 74.5417 107.438 75.0625C107.708 75.5833 108.104 75.9479 108.625 76.1562C109.146 76.3438 109.802 76.4375 110.594 76.4375C111.156 76.4375 111.656 76.4167 112.094 76.375C112.552 76.3125 112.938 76.25 113.25 76.1875L113.281 82.8125C112.51 83.0625 111.677 83.2604 110.781 83.4062C109.885 83.5521 108.896 83.625 107.812 83.625C105.833 83.625 104.104 83.3021 102.625 82.6562C101.167 81.9896 100.042 80.9271 99.25 79.4688C98.4583 78.0104 98.0625 76.0938 98.0625 73.7188V40.8438ZM53 124.188V158H43.9688V124.188H53ZM43.4062 115.375C43.4062 114.062 43.8646 112.979 44.7812 112.125C45.6979 111.271 46.9271 110.844 48.4688 110.844C49.9896 110.844 51.2083 111.271 52.125 112.125C53.0625 112.979 53.5312 114.062 53.5312 115.375C53.5312 116.688 53.0625 117.771 52.125 118.625C51.2083 119.479 49.9896 119.906 48.4688 119.906C46.9271 119.906 45.6979 119.479 44.7812 118.625C43.8646 117.771 43.4062 116.688 43.4062 115.375ZM69.25 131.406V158H60.25V124.188H68.6875L69.25 131.406ZM67.9375 139.906H65.5C65.5 137.406 65.8229 135.156 66.4688 133.156C67.1146 131.135 68.0208 129.417 69.1875 128C70.3542 126.562 71.7396 125.469 73.3438 124.719C74.9688 123.948 76.7812 123.562 78.7812 123.562C80.3646 123.562 81.8125 123.792 83.125 124.25C84.4375 124.708 85.5625 125.438 86.5 126.438C87.4583 127.438 88.1875 128.76 88.6875 130.406C89.2083 132.052 89.4688 134.062 89.4688 136.438V158H80.4062V136.406C80.4062 134.906 80.1979 133.74 79.7812 132.906C79.3646 132.073 78.75 131.49 77.9375 131.156C77.1458 130.802 76.1667 130.625 75 130.625C73.7917 130.625 72.7396 130.865 71.8438 131.344C70.9688 131.823 70.2396 132.49 69.6562 133.344C69.0938 134.177 68.6667 135.156 68.375 136.281C68.0833 137.406 67.9375 138.615 67.9375 139.906ZM112.875 124.188V130.562H93.1875V124.188H112.875ZM98.0625 115.844H107.062V147.812C107.062 148.792 107.188 149.542 107.438 150.062C107.708 150.583 108.104 150.948 108.625 151.156C109.146 151.344 109.802 151.438 110.594 151.438C111.156 151.438 111.656 151.417 112.094 151.375C112.552 151.312 112.938 151.25 113.25 151.188L113.281 157.812C112.51 158.062 111.677 158.26 110.781 158.406C109.885 158.552 108.896 158.625 107.812 158.625C105.833 158.625 104.104 158.302 102.625 157.656C101.167 156.99 100.042 155.927 99.25 154.469C98.4583 153.01 98.0625 151.094 98.0625 148.719V115.844Z" fill="#6068FF"/>
<path d="M152.188 75.375V60.3125C152.188 59.2292 152.01 58.3021 151.656 57.5312C151.302 56.7396 150.75 56.125 150 55.6875C149.271 55.25 148.323 55.0312 147.156 55.0312C146.156 55.0312 145.292 55.2083 144.562 55.5625C143.833 55.8958 143.271 56.3854 142.875 57.0312C142.479 57.6562 142.281 58.3958 142.281 59.25H133.281C133.281 57.8125 133.615 56.4479 134.281 55.1562C134.948 53.8646 135.917 52.7292 137.188 51.75C138.458 50.75 139.969 49.9688 141.719 49.4062C143.49 48.8438 145.469 48.5625 147.656 48.5625C150.281 48.5625 152.615 49 154.656 49.875C156.698 50.75 158.302 52.0625 159.469 53.8125C160.656 55.5625 161.25 57.75 161.25 60.375V74.8438C161.25 76.6979 161.365 78.2188 161.594 79.4062C161.823 80.5729 162.156 81.5938 162.594 82.4688V83H153.5C153.062 82.0833 152.729 80.9375 152.5 79.5625C152.292 78.1667 152.188 76.7708 152.188 75.375ZM153.375 62.4062L153.438 67.5H148.406C147.219 67.5 146.188 67.6354 145.312 67.9062C144.438 68.1771 143.719 68.5625 143.156 69.0625C142.594 69.5417 142.177 70.1042 141.906 70.75C141.656 71.3958 141.531 72.1042 141.531 72.875C141.531 73.6458 141.708 74.3438 142.062 74.9688C142.417 75.5729 142.927 76.0521 143.594 76.4062C144.26 76.7396 145.042 76.9062 145.938 76.9062C147.292 76.9062 148.469 76.6354 149.469 76.0938C150.469 75.5521 151.24 74.8854 151.781 74.0938C152.344 73.3021 152.635 72.5521 152.656 71.8438L155.031 75.6562C154.698 76.5104 154.24 77.3958 153.656 78.3125C153.094 79.2292 152.375 80.0938 151.5 80.9062C150.625 81.6979 149.573 82.3542 148.344 82.875C147.115 83.375 145.656 83.625 143.969 83.625C141.823 83.625 139.875 83.1979 138.125 82.3438C136.396 81.4688 135.021 80.2708 134 78.75C133 77.2083 132.5 75.4583 132.5 73.5C132.5 71.7292 132.833 70.1562 133.5 68.7812C134.167 67.4062 135.146 66.25 136.438 65.3125C137.75 64.3542 139.385 63.6354 141.344 63.1562C143.302 62.6562 145.573 62.4062 148.156 62.4062H153.375ZM212.906 52.375V59.5H184.875V52.375H212.906ZM212.906 65.875V73H184.875V65.875H212.906Z" fill="#FFFDFD"/>
<path d="M258.375 37.4062V83H249.375V47.7812L238.562 51.2188V44.125L257.406 37.4062H258.375ZM269.312 150.969V158H238.188V152L252.906 136.219C254.385 134.573 255.552 133.125 256.406 131.875C257.26 130.604 257.875 129.469 258.25 128.469C258.646 127.448 258.844 126.479 258.844 125.562C258.844 124.188 258.615 123.01 258.156 122.031C257.698 121.031 257.021 120.26 256.125 119.719C255.25 119.177 254.167 118.906 252.875 118.906C251.5 118.906 250.312 119.24 249.312 119.906C248.333 120.573 247.583 121.5 247.062 122.688C246.562 123.875 246.312 125.219 246.312 126.719H237.281C237.281 124.01 237.927 121.531 239.219 119.281C240.51 117.01 242.333 115.208 244.688 113.875C247.042 112.521 249.833 111.844 253.062 111.844C256.25 111.844 258.938 112.365 261.125 113.406C263.333 114.427 265 115.906 266.125 117.844C267.271 119.76 267.844 122.052 267.844 124.719C267.844 126.219 267.604 127.688 267.125 129.125C266.646 130.542 265.958 131.958 265.062 133.375C264.188 134.771 263.125 136.188 261.875 137.625C260.625 139.062 259.24 140.552 257.719 142.094L249.812 150.969H269.312Z" fill="#E74043"/>
<path d="M273.438 52.875C273.438 51.5417 273.896 50.4271 274.812 49.5312C275.75 48.6354 276.99 48.1875 278.531 48.1875C280.073 48.1875 281.302 48.6354 282.219 49.5312C283.156 50.4271 283.625 51.5417 283.625 52.875C283.625 54.2083 283.156 55.3229 282.219 56.2188C281.302 57.1146 280.073 57.5625 278.531 57.5625C276.99 57.5625 275.75 57.1146 274.812 56.2188C273.896 55.3229 273.438 54.2083 273.438 52.875ZM282.75 75.4062L282.719 81.4375C282.719 83.75 282.135 86.0833 280.969 88.4375C279.823 90.7917 278.365 92.7188 276.594 94.2188L271.906 91.8125C272.427 90.8542 272.938 89.8958 273.438 88.9375C273.938 87.9792 274.354 86.9271 274.688 85.7812C275.021 84.6354 275.188 83.3333 275.188 81.875V75.4062H282.75ZM133.938 110H142.938V150.25L142.031 158H133.938V110ZM164.344 140.75V141.406C164.344 143.927 164.073 146.24 163.531 148.344C163.01 150.448 162.198 152.271 161.094 153.812C159.99 155.333 158.615 156.521 156.969 157.375C155.344 158.208 153.427 158.625 151.219 158.625C149.156 158.625 147.365 158.208 145.844 157.375C144.344 156.542 143.083 155.365 142.062 153.844C141.042 152.323 140.219 150.542 139.594 148.5C138.969 146.458 138.5 144.229 138.188 141.812V140.375C138.5 137.958 138.969 135.729 139.594 133.688C140.219 131.646 141.042 129.865 142.062 128.344C143.083 126.823 144.344 125.646 145.844 124.812C147.344 123.979 149.115 123.562 151.156 123.562C153.385 123.562 155.323 123.99 156.969 124.844C158.635 125.677 160.01 126.865 161.094 128.406C162.198 129.927 163.01 131.74 163.531 133.844C164.073 135.927 164.344 138.229 164.344 140.75ZM155.344 141.406V140.75C155.344 139.375 155.24 138.083 155.031 136.875C154.844 135.646 154.51 134.573 154.031 133.656C153.552 132.719 152.896 131.979 152.062 131.438C151.25 130.896 150.198 130.625 148.906 130.625C147.677 130.625 146.635 130.833 145.781 131.25C144.927 131.667 144.219 132.25 143.656 133C143.115 133.75 142.708 134.646 142.438 135.688C142.167 136.708 142 137.833 141.938 139.062V143.156C142 144.802 142.271 146.26 142.75 147.531C143.25 148.781 144 149.771 145 150.5C146.021 151.208 147.344 151.562 148.969 151.562C150.24 151.562 151.292 151.312 152.125 150.812C152.958 150.312 153.604 149.604 154.062 148.688C154.542 147.771 154.875 146.698 155.062 145.469C155.25 144.219 155.344 142.865 155.344 141.406ZM214.656 127.375V134.5H186.625V127.375H214.656ZM214.656 140.875V148H186.625V140.875H214.656ZM275.188 127.875C275.188 126.542 275.646 125.427 276.562 124.531C277.5 123.635 278.74 123.188 280.281 123.188C281.823 123.188 283.052 123.635 283.969 124.531C284.906 125.427 285.375 126.542 285.375 127.875C285.375 129.208 284.906 130.323 283.969 131.219C283.052 132.115 281.823 132.562 280.281 132.562C278.74 132.562 277.5 132.115 276.562 131.219C275.646 130.323 275.188 129.208 275.188 127.875ZM284.5 150.406L284.469 156.438C284.469 158.75 283.885 161.083 282.719 163.438C281.573 165.792 280.115 167.719 278.344 169.219L273.656 166.812C274.177 165.854 274.688 164.896 275.188 163.938C275.688 162.979 276.104 161.927 276.438 160.781C276.771 159.635 276.938 158.333 276.938 156.875V150.406H284.5Z" fill="white"/>
</svg>
