<svg width="329" height="199" viewBox="0 0 329 199" fill="none" xmlns="http://www.w3.org/2000/svg">
<path d="M53 49.1875V83H43.9688V49.1875H53ZM43.4062 40.375C43.4062 39.0625 43.8646 37.9792 44.7812 37.125C45.6979 36.2708 46.9271 35.8438 48.4688 35.8438C49.9896 35.8438 51.2083 36.2708 52.125 37.125C53.0625 37.9792 53.5312 39.0625 53.5312 40.375C53.5312 41.6875 53.0625 42.7708 52.125 43.625C51.2083 44.4792 49.9896 44.9062 48.4688 44.9062C46.9271 44.9062 45.6979 44.4792 44.7812 43.625C43.8646 42.7708 43.4062 41.6875 43.4062 40.375ZM69.25 56.4062V83H60.25V49.1875H68.6875L69.25 56.4062ZM67.9375 64.9062H65.5C65.5 62.4062 65.8229 60.1562 66.4688 58.1562C67.1146 56.1354 68.0208 54.4167 69.1875 53C70.3542 51.5625 71.7396 50.4688 73.3438 49.7188C74.9688 48.9479 76.7812 48.5625 78.7812 48.5625C80.3646 48.5625 81.8125 48.7917 83.125 49.25C84.4375 49.7083 85.5625 50.4375 86.5 51.4375C87.4583 52.4375 88.1875 53.7604 88.6875 55.4062C89.2083 57.0521 89.4688 59.0625 89.4688 61.4375V83H80.4062V61.4062C80.4062 59.9062 80.1979 58.7396 79.7812 57.9062C79.3646 57.0729 78.75 56.4896 77.9375 56.1562C77.1458 55.8021 76.1667 55.625 75 55.625C73.7917 55.625 72.7396 55.8646 71.8438 56.3438C70.9688 56.8229 70.2396 57.4896 69.6562 58.3438C69.0938 59.1771 68.6667 60.1562 68.375 61.2812C68.0833 62.4062 67.9375 63.6146 67.9375 64.9062ZM112.875 49.1875V55.5625H93.1875V49.1875H112.875ZM98.0625 40.8438H107.062V72.8125C107.062 73.7917 107.188 74.5417 107.438 75.0625C107.708 75.5833 108.104 75.9479 108.625 76.1562C109.146 76.3438 109.802 76.4375 110.594 76.4375C111.156 76.4375 111.656 76.4167 112.094 76.375C112.552 76.3125 112.938 76.25 113.25 76.1875L113.281 82.8125C112.51 83.0625 111.677 83.2604 110.781 83.4062C109.885 83.5521 108.896 83.625 107.812 83.625C105.833 83.625 104.104 83.3021 102.625 82.6562C101.167 81.9896 100.042 80.9271 99.25 79.4688C98.4583 78.0104 98.0625 76.0938 98.0625 73.7188V40.8438Z" fill="#6068FF"/>
<path d="M133.938 35H142.938V75.25L142.031 83H133.938V35ZM164.344 65.75V66.4062C164.344 68.9271 164.073 71.2396 163.531 73.3438C163.01 75.4479 162.198 77.2708 161.094 78.8125C159.99 80.3333 158.615 81.5208 156.969 82.375C155.344 83.2083 153.427 83.625 151.219 83.625C149.156 83.625 147.365 83.2083 145.844 82.375C144.344 81.5417 143.083 80.3646 142.062 78.8438C141.042 77.3229 140.219 75.5417 139.594 73.5C138.969 71.4583 138.5 69.2292 138.188 66.8125V65.375C138.5 62.9583 138.969 60.7292 139.594 58.6875C140.219 56.6458 141.042 54.8646 142.062 53.3438C143.083 51.8229 144.344 50.6458 145.844 49.8125C147.344 48.9792 149.115 48.5625 151.156 48.5625C153.385 48.5625 155.323 48.9896 156.969 49.8438C158.635 50.6771 160.01 51.8646 161.094 53.4062C162.198 54.9271 163.01 56.7396 163.531 58.8438C164.073 60.9271 164.344 63.2292 164.344 65.75ZM155.344 66.4062V65.75C155.344 64.375 155.24 63.0833 155.031 61.875C154.844 60.6458 154.51 59.5729 154.031 58.6562C153.552 57.7188 152.896 56.9792 152.062 56.4375C151.25 55.8958 150.198 55.625 148.906 55.625C147.677 55.625 146.635 55.8333 145.781 56.25C144.927 56.6667 144.219 57.25 143.656 58C143.115 58.75 142.708 59.6458 142.438 60.6875C142.167 61.7083 142 62.8333 141.938 64.0625V68.1562C142 69.8021 142.271 71.2604 142.75 72.5312C143.25 73.7812 144 74.7708 145 75.5C146.021 76.2083 147.344 76.5625 148.969 76.5625C150.24 76.5625 151.292 76.3125 152.125 75.8125C152.958 75.3125 153.604 74.6042 154.062 73.6875C154.542 72.7708 154.875 71.6979 155.062 70.4688C155.25 69.2188 155.344 67.8646 155.344 66.4062ZM214.656 52.375V59.5H186.625V52.375H214.656ZM214.656 65.875V73H186.625V65.875H214.656Z" fill="#FFFDFD"/>
<path d="M268.844 70.5312C268.844 73.3854 268.177 75.7917 266.844 77.75C265.51 79.6875 263.677 81.1562 261.344 82.1562C259.031 83.1354 256.406 83.625 253.469 83.625C250.531 83.625 247.896 83.1354 245.562 82.1562C243.229 81.1562 241.385 79.6875 240.031 77.75C238.677 75.7917 238 73.3854 238 70.5312C238 68.6146 238.385 66.8854 239.156 65.3438C239.927 63.7812 241 62.4479 242.375 61.3438C243.771 60.2188 245.406 59.3646 247.281 58.7812C249.156 58.1771 251.198 57.875 253.406 57.875C256.365 57.875 259.01 58.3958 261.344 59.4375C263.677 60.4792 265.51 61.9479 266.844 63.8438C268.177 65.7396 268.844 67.9688 268.844 70.5312ZM259.781 69.9375C259.781 68.5417 259.51 67.3438 258.969 66.3438C258.448 65.3229 257.708 64.5417 256.75 64C255.792 63.4583 254.677 63.1875 253.406 63.1875C252.135 63.1875 251.021 63.4583 250.062 64C249.104 64.5417 248.354 65.3229 247.812 66.3438C247.292 67.3438 247.031 68.5417 247.031 69.9375C247.031 71.3125 247.292 72.5 247.812 73.5C248.354 74.5 249.104 75.2708 250.062 75.8125C251.042 76.3333 252.177 76.5938 253.469 76.5938C254.76 76.5938 255.875 76.3333 256.812 75.8125C257.771 75.2708 258.5 74.5 259 73.5C259.521 72.5 259.781 71.3125 259.781 69.9375ZM267.875 49.5625C267.875 51.875 267.26 53.9271 266.031 55.7188C264.802 57.4896 263.094 58.875 260.906 59.875C258.74 60.875 256.26 61.375 253.469 61.375C250.656 61.375 248.156 60.875 245.969 59.875C243.781 58.875 242.073 57.4896 240.844 55.7188C239.615 53.9271 239 51.875 239 49.5625C239 46.8125 239.615 44.5 240.844 42.625C242.094 40.7292 243.802 39.2917 245.969 38.3125C248.156 37.3333 250.635 36.8438 253.406 36.8438C256.219 36.8438 258.708 37.3333 260.875 38.3125C263.062 39.2917 264.771 40.7292 266 42.625C267.25 44.5 267.875 46.8125 267.875 49.5625ZM258.875 49.9688C258.875 48.7396 258.656 47.6771 258.219 46.7812C257.781 45.8646 257.156 45.1562 256.344 44.6562C255.552 44.1562 254.573 43.9062 253.406 43.9062C252.281 43.9062 251.312 44.1458 250.5 44.625C249.708 45.1042 249.094 45.8021 248.656 46.7188C248.24 47.6146 248.031 48.6979 248.031 49.9688C248.031 51.1979 248.24 52.2812 248.656 53.2188C249.094 54.1354 249.719 54.8542 250.531 55.375C251.344 55.8958 252.323 56.1562 253.469 56.1562C254.615 56.1562 255.583 55.8958 256.375 55.375C257.188 54.8542 257.802 54.1354 258.219 53.2188C258.656 52.2812 258.875 51.1979 258.875 49.9688ZM156.219 137.281L149.031 135.562L151.625 112.5H177.188V119.781H159.031L157.906 129.875C158.51 129.521 159.427 129.146 160.656 128.75C161.885 128.333 163.26 128.125 164.781 128.125C166.99 128.125 168.948 128.469 170.656 129.156C172.365 129.844 173.812 130.844 175 132.156C176.208 133.469 177.125 135.073 177.75 136.969C178.375 138.865 178.688 141.01 178.688 143.406C178.688 145.427 178.375 147.354 177.75 149.188C177.125 151 176.177 152.625 174.906 154.062C173.635 155.479 172.042 156.594 170.125 157.406C168.208 158.219 165.938 158.625 163.312 158.625C161.354 158.625 159.458 158.333 157.625 157.75C155.812 157.167 154.177 156.302 152.719 155.156C151.281 154.01 150.125 152.625 149.25 151C148.396 149.354 147.948 147.479 147.906 145.375H156.844C156.969 146.667 157.302 147.781 157.844 148.719C158.406 149.635 159.146 150.344 160.062 150.844C160.979 151.344 162.052 151.594 163.281 151.594C164.427 151.594 165.406 151.375 166.219 150.938C167.031 150.5 167.688 149.896 168.188 149.125C168.688 148.333 169.052 147.417 169.281 146.375C169.531 145.312 169.656 144.167 169.656 142.938C169.656 141.708 169.51 140.594 169.219 139.594C168.927 138.594 168.479 137.729 167.875 137C167.271 136.271 166.5 135.708 165.562 135.312C164.646 134.917 163.573 134.719 162.344 134.719C160.677 134.719 159.385 134.979 158.469 135.5C157.573 136.021 156.823 136.615 156.219 137.281Z" fill="#E74043"/>
<path d="M275.188 52.875C275.188 51.5417 275.646 50.4271 276.562 49.5312C277.5 48.6354 278.74 48.1875 280.281 48.1875C281.823 48.1875 283.052 48.6354 283.969 49.5312C284.906 50.4271 285.375 51.5417 285.375 52.875C285.375 54.2083 284.906 55.3229 283.969 56.2188C283.052 57.1146 281.823 57.5625 280.281 57.5625C278.74 57.5625 277.5 57.1146 276.562 56.2188C275.646 55.3229 275.188 54.2083 275.188 52.875ZM284.5 75.4062L284.469 81.4375C284.469 83.75 283.885 86.0833 282.719 88.4375C281.573 90.7917 280.115 92.7188 278.344 94.2188L273.656 91.8125C274.177 90.8542 274.688 89.8958 275.188 88.9375C275.688 87.9792 276.104 86.9271 276.438 85.7812C276.771 84.6354 276.938 83.3333 276.938 81.875V75.4062H284.5ZM43.5 110H52.5V150.25L51.5938 158H43.5V110ZM73.9062 140.75V141.406C73.9062 143.927 73.6354 146.24 73.0938 148.344C72.5729 150.448 71.7604 152.271 70.6562 153.812C69.5521 155.333 68.1771 156.521 66.5312 157.375C64.9062 158.208 62.9896 158.625 60.7812 158.625C58.7188 158.625 56.9271 158.208 55.4062 157.375C53.9062 156.542 52.6458 155.365 51.625 153.844C50.6042 152.323 49.7812 150.542 49.1562 148.5C48.5312 146.458 48.0625 144.229 47.75 141.812V140.375C48.0625 137.958 48.5312 135.729 49.1562 133.688C49.7812 131.646 50.6042 129.865 51.625 128.344C52.6458 126.823 53.9062 125.646 55.4062 124.812C56.9062 123.979 58.6771 123.562 60.7188 123.562C62.9479 123.562 64.8854 123.99 66.5312 124.844C68.1979 125.677 69.5729 126.865 70.6562 128.406C71.7604 129.927 72.5729 131.74 73.0938 133.844C73.6354 135.927 73.9062 138.229 73.9062 140.75ZM64.9062 141.406V140.75C64.9062 139.375 64.8021 138.083 64.5938 136.875C64.4062 135.646 64.0729 134.573 63.5938 133.656C63.1146 132.719 62.4583 131.979 61.625 131.438C60.8125 130.896 59.7604 130.625 58.4688 130.625C57.2396 130.625 56.1979 130.833 55.3438 131.25C54.4896 131.667 53.7812 132.25 53.2188 133C52.6771 133.75 52.2708 134.646 52 135.688C51.7292 136.708 51.5625 137.833 51.5 139.062V143.156C51.5625 144.802 51.8333 146.26 52.3125 147.531C52.8125 148.781 53.5625 149.771 54.5625 150.5C55.5833 151.208 56.9062 151.562 58.5312 151.562C59.8021 151.562 60.8542 151.312 61.6875 150.812C62.5208 150.312 63.1667 149.604 63.625 148.688C64.1042 147.771 64.4375 146.698 64.625 145.469C64.8125 144.219 64.9062 142.865 64.9062 141.406ZM124.219 127.375V134.5H96.1875V127.375H124.219ZM124.219 140.875V148H96.1875V140.875H124.219ZM184.75 127.875C184.75 126.542 185.208 125.427 186.125 124.531C187.062 123.635 188.302 123.188 189.844 123.188C191.385 123.188 192.615 123.635 193.531 124.531C194.469 125.427 194.938 126.542 194.938 127.875C194.938 129.208 194.469 130.323 193.531 131.219C192.615 132.115 191.385 132.562 189.844 132.562C188.302 132.562 187.062 132.115 186.125 131.219C185.208 130.323 184.75 129.208 184.75 127.875ZM194.062 150.406L194.031 156.438C194.031 158.75 193.448 161.083 192.281 163.438C191.135 165.792 189.677 167.719 187.906 169.219L183.219 166.812C183.74 165.854 184.25 164.896 184.75 163.938C185.25 162.979 185.667 161.927 186 160.781C186.333 159.635 186.5 158.333 186.5 156.875V150.406H194.062Z" fill="white"/>
</svg>
