<svg width="329" height="199" viewBox="0 0 329 199" fill="none" xmlns="http://www.w3.org/2000/svg">
<path d="M54 49.1875V83H44.9688V49.1875H54ZM44.4062 40.375C44.4062 39.0625 44.8646 37.9792 45.7812 37.125C46.6979 36.2708 47.9271 35.8438 49.4688 35.8438C50.9896 35.8438 52.2083 36.2708 53.125 37.125C54.0625 37.9792 54.5312 39.0625 54.5312 40.375C54.5312 41.6875 54.0625 42.7708 53.125 43.625C52.2083 44.4792 50.9896 44.9062 49.4688 44.9062C47.9271 44.9062 46.6979 44.4792 45.7812 43.625C44.8646 42.7708 44.4062 41.6875 44.4062 40.375ZM70.25 56.4062V83H61.25V49.1875H69.6875L70.25 56.4062ZM68.9375 64.9062H66.5C66.5 62.4062 66.8229 60.1562 67.4688 58.1562C68.1146 56.1354 69.0208 54.4167 70.1875 53C71.3542 51.5625 72.7396 50.4688 74.3438 49.7188C75.9688 48.9479 77.7812 48.5625 79.7812 48.5625C81.3646 48.5625 82.8125 48.7917 84.125 49.25C85.4375 49.7083 86.5625 50.4375 87.5 51.4375C88.4583 52.4375 89.1875 53.7604 89.6875 55.4062C90.2083 57.0521 90.4688 59.0625 90.4688 61.4375V83H81.4062V61.4062C81.4062 59.9062 81.1979 58.7396 80.7812 57.9062C80.3646 57.0729 79.75 56.4896 78.9375 56.1562C78.1458 55.8021 77.1667 55.625 76 55.625C74.7917 55.625 73.7396 55.8646 72.8438 56.3438C71.9688 56.8229 71.2396 57.4896 70.6562 58.3438C70.0938 59.1771 69.6667 60.1562 69.375 61.2812C69.0833 62.4062 68.9375 63.6146 68.9375 64.9062ZM113.875 49.1875V55.5625H94.1875V49.1875H113.875ZM99.0625 40.8438H108.062V72.8125C108.062 73.7917 108.188 74.5417 108.438 75.0625C108.708 75.5833 109.104 75.9479 109.625 76.1562C110.146 76.3438 110.802 76.4375 111.594 76.4375C112.156 76.4375 112.656 76.4167 113.094 76.375C113.552 76.3125 113.938 76.25 114.25 76.1875L114.281 82.8125C113.51 83.0625 112.677 83.2604 111.781 83.4062C110.885 83.5521 109.896 83.625 108.812 83.625C106.833 83.625 105.104 83.3021 103.625 82.6562C102.167 81.9896 101.042 80.9271 100.25 79.4688C99.4583 78.0104 99.0625 76.0938 99.0625 73.7188V40.8438Z" fill="#6068FF"/>
<path d="M153.188 75.375V60.3125C153.188 59.2292 153.01 58.3021 152.656 57.5312C152.302 56.7396 151.75 56.125 151 55.6875C150.271 55.25 149.323 55.0312 148.156 55.0312C147.156 55.0312 146.292 55.2083 145.562 55.5625C144.833 55.8958 144.271 56.3854 143.875 57.0312C143.479 57.6562 143.281 58.3958 143.281 59.25H134.281C134.281 57.8125 134.615 56.4479 135.281 55.1562C135.948 53.8646 136.917 52.7292 138.188 51.75C139.458 50.75 140.969 49.9688 142.719 49.4062C144.49 48.8438 146.469 48.5625 148.656 48.5625C151.281 48.5625 153.615 49 155.656 49.875C157.698 50.75 159.302 52.0625 160.469 53.8125C161.656 55.5625 162.25 57.75 162.25 60.375V74.8438C162.25 76.6979 162.365 78.2188 162.594 79.4062C162.823 80.5729 163.156 81.5938 163.594 82.4688V83H154.5C154.062 82.0833 153.729 80.9375 153.5 79.5625C153.292 78.1667 153.188 76.7708 153.188 75.375ZM154.375 62.4062L154.438 67.5H149.406C148.219 67.5 147.188 67.6354 146.312 67.9062C145.438 68.1771 144.719 68.5625 144.156 69.0625C143.594 69.5417 143.177 70.1042 142.906 70.75C142.656 71.3958 142.531 72.1042 142.531 72.875C142.531 73.6458 142.708 74.3438 143.062 74.9688C143.417 75.5729 143.927 76.0521 144.594 76.4062C145.26 76.7396 146.042 76.9062 146.938 76.9062C148.292 76.9062 149.469 76.6354 150.469 76.0938C151.469 75.5521 152.24 74.8854 152.781 74.0938C153.344 73.3021 153.635 72.5521 153.656 71.8438L156.031 75.6562C155.698 76.5104 155.24 77.3958 154.656 78.3125C154.094 79.2292 153.375 80.0938 152.5 80.9062C151.625 81.6979 150.573 82.3542 149.344 82.875C148.115 83.375 146.656 83.625 144.969 83.625C142.823 83.625 140.875 83.1979 139.125 82.3438C137.396 81.4688 136.021 80.2708 135 78.75C134 77.2083 133.5 75.4583 133.5 73.5C133.5 71.7292 133.833 70.1562 134.5 68.7812C135.167 67.4062 136.146 66.25 137.438 65.3125C138.75 64.3542 140.385 63.6354 142.344 63.1562C144.302 62.6562 146.573 62.4062 149.156 62.4062H154.375ZM213.906 52.375V59.5H185.875V52.375H213.906ZM213.906 65.875V73H185.875V65.875H213.906Z" fill="#FFFDFD"/>
<path d="M260.656 37.0312H261.969V44.2188H261.438C259.062 44.2188 256.948 44.5729 255.094 45.2812C253.24 45.9896 251.667 47 250.375 48.3125C249.104 49.6042 248.125 51.1667 247.438 53C246.771 54.8333 246.438 56.8854 246.438 59.1562V66.7188C246.438 68.3438 246.594 69.7812 246.906 71.0312C247.24 72.2604 247.708 73.2917 248.312 74.125C248.938 74.9375 249.667 75.5521 250.5 75.9688C251.333 76.3646 252.271 76.5625 253.312 76.5625C254.292 76.5625 255.177 76.3542 255.969 75.9375C256.781 75.5208 257.469 74.9375 258.031 74.1875C258.615 73.4167 259.052 72.5208 259.344 71.5C259.656 70.4583 259.812 69.3229 259.812 68.0938C259.812 66.8646 259.656 65.7292 259.344 64.6875C259.052 63.6458 258.615 62.75 258.031 62C257.448 61.2292 256.74 60.6354 255.906 60.2188C255.073 59.8021 254.135 59.5938 253.094 59.5938C251.677 59.5938 250.427 59.9271 249.344 60.5938C248.281 61.2396 247.448 62.0729 246.844 63.0938C246.24 64.1146 245.917 65.1875 245.875 66.3125L243.156 64.5625C243.219 62.9583 243.552 61.4375 244.156 60C244.781 58.5625 245.635 57.2917 246.719 56.1875C247.823 55.0625 249.146 54.1875 250.688 53.5625C252.229 52.9167 253.969 52.5938 255.906 52.5938C258.031 52.5938 259.896 53 261.5 53.8125C263.125 54.625 264.479 55.7396 265.562 57.1562C266.646 58.5729 267.458 60.2083 268 62.0625C268.542 63.9167 268.812 65.8958 268.812 68C268.812 70.2083 268.448 72.2604 267.719 74.1562C267.01 76.0521 265.979 77.7083 264.625 79.125C263.292 80.5417 261.688 81.6458 259.812 82.4375C257.938 83.2292 255.833 83.625 253.5 83.625C251.083 83.625 248.885 83.1875 246.906 82.3125C244.948 81.4167 243.26 80.1667 241.844 78.5625C240.427 76.9583 239.333 75.0521 238.562 72.8438C237.812 70.6354 237.438 68.2188 237.438 65.5938V62.0938C237.438 58.4271 237.969 55.0729 239.031 52.0312C240.115 48.9688 241.667 46.3229 243.688 44.0938C245.708 41.8438 248.146 40.1042 251 38.875C253.854 37.6458 257.073 37.0312 260.656 37.0312ZM156.219 131.344H161.031C162.573 131.344 163.844 131.083 164.844 130.562C165.844 130.021 166.583 129.271 167.062 128.312C167.562 127.333 167.812 126.198 167.812 124.906C167.812 123.74 167.583 122.708 167.125 121.812C166.688 120.896 166.01 120.188 165.094 119.688C164.177 119.167 163.021 118.906 161.625 118.906C160.521 118.906 159.5 119.125 158.562 119.562C157.625 120 156.875 120.615 156.312 121.406C155.75 122.198 155.469 123.156 155.469 124.281H146.438C146.438 121.781 147.104 119.604 148.438 117.75C149.792 115.896 151.604 114.448 153.875 113.406C156.146 112.365 158.646 111.844 161.375 111.844C164.458 111.844 167.156 112.344 169.469 113.344C171.781 114.323 173.583 115.771 174.875 117.688C176.167 119.604 176.812 121.979 176.812 124.812C176.812 126.25 176.479 127.646 175.812 129C175.146 130.333 174.188 131.542 172.938 132.625C171.708 133.688 170.208 134.542 168.438 135.188C166.667 135.812 164.677 136.125 162.469 136.125H156.219V131.344ZM156.219 138.188V133.531H162.469C164.948 133.531 167.125 133.812 169 134.375C170.875 134.938 172.448 135.75 173.719 136.812C174.99 137.854 175.948 139.094 176.594 140.531C177.24 141.948 177.562 143.521 177.562 145.25C177.562 147.375 177.156 149.271 176.344 150.938C175.531 152.583 174.385 153.979 172.906 155.125C171.448 156.271 169.74 157.146 167.781 157.75C165.823 158.333 163.688 158.625 161.375 158.625C159.458 158.625 157.573 158.365 155.719 157.844C153.885 157.302 152.219 156.5 150.719 155.438C149.24 154.354 148.052 153 147.156 151.375C146.281 149.729 145.844 147.781 145.844 145.531H154.875C154.875 146.698 155.167 147.74 155.75 148.656C156.333 149.573 157.135 150.292 158.156 150.812C159.198 151.333 160.354 151.594 161.625 151.594C163.062 151.594 164.292 151.333 165.312 150.812C166.354 150.271 167.146 149.521 167.688 148.562C168.25 147.583 168.531 146.448 168.531 145.156C168.531 143.49 168.229 142.156 167.625 141.156C167.021 140.135 166.156 139.385 165.031 138.906C163.906 138.427 162.573 138.188 161.031 138.188H156.219Z" fill="#E74043"/>
<path d="M274.438 52.875C274.438 51.5417 274.896 50.4271 275.812 49.5312C276.75 48.6354 277.99 48.1875 279.531 48.1875C281.073 48.1875 282.302 48.6354 283.219 49.5312C284.156 50.4271 284.625 51.5417 284.625 52.875C284.625 54.2083 284.156 55.3229 283.219 56.2188C282.302 57.1146 281.073 57.5625 279.531 57.5625C277.99 57.5625 276.75 57.1146 275.812 56.2188C274.896 55.3229 274.438 54.2083 274.438 52.875ZM283.75 75.4062L283.719 81.4375C283.719 83.75 283.135 86.0833 281.969 88.4375C280.823 90.7917 279.365 92.7188 277.594 94.2188L272.906 91.8125C273.427 90.8542 273.938 89.8958 274.438 88.9375C274.938 87.9792 275.354 86.9271 275.688 85.7812C276.021 84.6354 276.188 83.3333 276.188 81.875V75.4062H283.75ZM62.75 150.375V135.312C62.75 134.229 62.5729 133.302 62.2188 132.531C61.8646 131.74 61.3125 131.125 60.5625 130.688C59.8333 130.25 58.8854 130.031 57.7188 130.031C56.7188 130.031 55.8542 130.208 55.125 130.562C54.3958 130.896 53.8333 131.385 53.4375 132.031C53.0417 132.656 52.8438 133.396 52.8438 134.25H43.8438C43.8438 132.812 44.1771 131.448 44.8438 130.156C45.5104 128.865 46.4792 127.729 47.75 126.75C49.0208 125.75 50.5312 124.969 52.2812 124.406C54.0521 123.844 56.0312 123.562 58.2188 123.562C60.8438 123.562 63.1771 124 65.2188 124.875C67.2604 125.75 68.8646 127.062 70.0312 128.812C71.2188 130.562 71.8125 132.75 71.8125 135.375V149.844C71.8125 151.698 71.9271 153.219 72.1562 154.406C72.3854 155.573 72.7188 156.594 73.1562 157.469V158H64.0625C63.625 157.083 63.2917 155.938 63.0625 154.562C62.8542 153.167 62.75 151.771 62.75 150.375ZM63.9375 137.406L64 142.5H58.9688C57.7812 142.5 56.75 142.635 55.875 142.906C55 143.177 54.2812 143.562 53.7188 144.062C53.1562 144.542 52.7396 145.104 52.4688 145.75C52.2188 146.396 52.0938 147.104 52.0938 147.875C52.0938 148.646 52.2708 149.344 52.625 149.969C52.9792 150.573 53.4896 151.052 54.1562 151.406C54.8229 151.74 55.6042 151.906 56.5 151.906C57.8542 151.906 59.0312 151.635 60.0312 151.094C61.0312 150.552 61.8021 149.885 62.3438 149.094C62.9062 148.302 63.1979 147.552 63.2188 146.844L65.5938 150.656C65.2604 151.51 64.8021 152.396 64.2188 153.312C63.6562 154.229 62.9375 155.094 62.0625 155.906C61.1875 156.698 60.1354 157.354 58.9062 157.875C57.6771 158.375 56.2188 158.625 54.5312 158.625C52.3854 158.625 50.4375 158.198 48.6875 157.344C46.9583 156.469 45.5833 155.271 44.5625 153.75C43.5625 152.208 43.0625 150.458 43.0625 148.5C43.0625 146.729 43.3958 145.156 44.0625 143.781C44.7292 142.406 45.7083 141.25 47 140.312C48.3125 139.354 49.9479 138.635 51.9062 138.156C53.8646 137.656 56.1354 137.406 58.7188 137.406H63.9375ZM123.469 127.375V134.5H95.4375V127.375H123.469ZM123.469 140.875V148H95.4375V140.875H123.469ZM184 127.875C184 126.542 184.458 125.427 185.375 124.531C186.312 123.635 187.552 123.188 189.094 123.188C190.635 123.188 191.865 123.635 192.781 124.531C193.719 125.427 194.188 126.542 194.188 127.875C194.188 129.208 193.719 130.323 192.781 131.219C191.865 132.115 190.635 132.562 189.094 132.562C187.552 132.562 186.312 132.115 185.375 131.219C184.458 130.323 184 129.208 184 127.875ZM193.312 150.406L193.281 156.438C193.281 158.75 192.698 161.083 191.531 163.438C190.385 165.792 188.927 167.719 187.156 169.219L182.469 166.812C182.99 165.854 183.5 164.896 184 163.938C184.5 162.979 184.917 161.927 185.25 160.781C185.583 159.635 185.75 158.333 185.75 156.875V150.406H193.312Z" fill="white"/>
</svg>
