<svg width="33" height="32" viewBox="0 0 33 32" fill="none" xmlns="http://www.w3.org/2000/svg">
<path d="M23.7792 24H23.5625C23.3069 22.8333 22.8569 21.7604 22.2125 20.7812C21.5681 19.8021 20.7847 18.9583 19.8625 18.25C18.9403 17.5417 17.9014 16.9896 16.7458 16.5938C15.5903 16.1979 14.3792 16 13.1125 16C12.1347 16 11.1903 16.1198 10.2792 16.3594C9.36806 16.599 8.51806 16.9323 7.72917 17.3594C6.94028 17.7865 6.22361 18.3073 5.57917 18.9219C4.93472 19.5365 4.37917 20.2135 3.9125 20.9531C3.44583 21.6927 3.08472 22.4896 2.82917 23.3438C2.57361 24.1979 2.44583 25.0833 2.44583 26H0.3125C0.3125 24.75 0.506944 23.5469 0.895833 22.3906C1.28472 21.2344 1.84583 20.1667 2.57917 19.1875C3.3125 18.2083 4.17917 17.3385 5.17917 16.5781C6.17917 15.8177 7.3125 15.2188 8.57917 14.7812C7.32361 14.0104 6.34583 13.0417 5.64583 11.875C4.94583 10.7083 4.59028 9.41667 4.57917 8C4.57917 6.89583 4.80139 5.85938 5.24583 4.89062C5.69028 3.92188 6.29583 3.07292 7.0625 2.34375C7.82917 1.61458 8.73472 1.04167 9.77917 0.625C10.8236 0.208333 11.9347 0 13.1125 0C14.2903 0 15.3958 0.208333 16.4292 0.625C17.4625 1.04167 18.3681 1.60938 19.1458 2.32812C19.9236 3.04688 20.5347 3.89583 20.9792 4.875C21.4236 5.85417 21.6458 6.89583 21.6458 8C21.6458 8.6875 21.5569 9.35938 21.3792 10.0156C21.2014 10.6719 20.9347 11.2917 20.5792 11.875C20.2236 12.4583 19.8069 12.9948 19.3292 13.4844C18.8514 13.974 18.2903 14.4062 17.6458 14.7812C18.8903 15.2292 20.0347 15.8438 21.0792 16.625C22.1236 17.4062 23.0236 18.3229 23.7792 19.375V24ZM6.7125 8C6.7125 8.83333 6.87917 9.60938 7.2125 10.3281C7.54583 11.0469 8.00139 11.6823 8.57917 12.2344C9.15694 12.7865 9.83472 13.2188 10.6125 13.5312C11.3903 13.8438 12.2236 14 13.1125 14C13.9903 14 14.8181 13.8438 15.5958 13.5312C16.3736 13.2188 17.0514 12.7917 17.6292 12.25C18.2069 11.7083 18.6681 11.0729 19.0125 10.3438C19.3569 9.61458 19.5236 8.83333 19.5125 8C19.5125 7.17708 19.3458 6.40104 19.0125 5.67188C18.6792 4.94271 18.2236 4.30729 17.6458 3.76562C17.0681 3.22396 16.3847 2.79167 15.5958 2.46875C14.8069 2.14583 13.9792 1.98958 13.1125 2C12.2236 2 11.3958 2.15625 10.6292 2.46875C9.8625 2.78125 9.18472 3.20833 8.59583 3.75C8.00694 4.29167 7.54583 4.93229 7.2125 5.67188C6.87917 6.41146 6.7125 7.1875 6.7125 8ZM28.0458 26H32.3125V28H28.0458V32H25.9125V28H21.6458V26H25.9125V22H28.0458V26Z" fill="white"/>
</svg>
