<svg width="50" height="42" viewBox="0 0 50 42" fill="none" xmlns="http://www.w3.org/2000/svg">
<path d="M1.825 0.750591C2.05421 0.379503 2.41111 0.121483 2.81722 0.0332731C3.22334 -0.0549372 3.64541 0.0338843 3.99062 0.280206L8.67812 3.64346C9.0097 3.89623 9.23661 4.27798 9.31069 4.70768C9.38477 5.13738 9.3002 5.5812 9.07492 5.94496C8.84964 6.30872 8.50139 6.56377 8.10407 6.65599C7.70676 6.74821 7.29166 6.67033 6.94688 6.43889L2.25937 3.079C1.91474 2.83204 1.67539 2.44806 1.59394 2.01146C1.51249 1.57486 1.5956 1.12135 1.825 0.750591ZM25 0.00133476C21.2704 0.00133476 17.6935 1.59428 15.0563 4.42974C12.4191 7.2652 10.9375 11.1109 10.9375 15.1209V23.188L7.925 31.2954C7.82999 31.5503 7.79454 31.8263 7.82176 32.0993C7.84898 32.3724 7.93803 32.6341 8.08112 32.8615C8.22421 33.089 8.41698 33.2753 8.64254 33.404C8.86811 33.5328 9.1196 33.6002 9.375 33.6003H40.625C40.88 33.6 41.1311 33.5326 41.3563 33.404C41.5815 33.2754 41.774 33.0895 41.917 32.8625C42.0601 32.6355 42.1492 32.3743 42.1768 32.1017C42.2043 31.8291 42.1694 31.5535 42.075 31.2987L39.0625 23.1846V15.1209C39.0625 11.1109 37.5809 7.2652 34.9437 4.42974C32.3065 1.59428 28.7296 0.00133476 25 0.00133476ZM25 42C23.6141 42.0004 22.2674 41.5055 21.1717 40.5932C20.076 39.6809 19.2933 38.4029 18.9469 36.9602H31.0531C30.7067 38.4029 29.924 39.6809 28.8283 40.5932C27.7326 41.5055 26.3859 42.0004 25 42ZM46.0094 0.283566C46.3542 0.0521252 46.7693 -0.0257502 47.1666 0.0664682C47.5639 0.158687 47.9121 0.41374 48.1374 0.777496C48.3627 1.14125 48.4473 1.58508 48.3732 2.01477C48.2991 2.44447 48.0722 2.82622 47.7406 3.079L43.0531 6.43889C42.7083 6.67033 42.2932 6.74821 41.8959 6.65599C41.4986 6.56377 41.1504 6.30872 40.9251 5.94496C40.6998 5.5812 40.6152 5.13738 40.6893 4.70768C40.7634 4.27798 40.9903 3.89623 41.3219 3.64346L46.0094 0.283566ZM0 15.1209C0 14.6753 0.16462 14.248 0.457646 13.933C0.750671 13.6179 1.1481 13.4409 1.5625 13.4409H6.25C6.6644 13.4409 7.06183 13.6179 7.35485 13.933C7.64788 14.248 7.8125 14.6753 7.8125 15.1209C7.8125 15.5664 7.64788 15.9937 7.35485 16.3088C7.06183 16.6238 6.6644 16.8008 6.25 16.8008H1.5625C1.1481 16.8008 0.750671 16.6238 0.457646 16.3088C0.16462 15.9937 0 15.5664 0 15.1209ZM48.4375 13.4409C48.8519 13.4409 49.2493 13.6179 49.5424 13.933C49.8354 14.248 50 14.6753 50 15.1209C50 15.5664 49.8354 15.9937 49.5424 16.3088C49.2493 16.6238 48.8519 16.8008 48.4375 16.8008H43.75C43.3356 16.8008 42.9382 16.6238 42.6451 16.3088C42.3521 15.9937 42.1875 15.5664 42.1875 15.1209C42.1875 14.6753 42.3521 14.248 42.6451 13.933C42.9382 13.6179 43.3356 13.4409 43.75 13.4409H48.4375Z" fill="white"/>
</svg>
