<svg width="45" height="40" viewBox="0 0 45 40" fill="none" xmlns="http://www.w3.org/2000/svg">
<path d="M35.6687 0C37.5005 0 39.1343 1.74644 39.1343 4.09239C39.1343 6.4467 37.5005 8.18477 35.6687 8.18477C33.8369 8.18477 32.2031 6.4467 32.2031 4.09239C32.2031 1.74644 33.8369 0 35.6687 0ZM22.5094 0C24.3313 0 25.975 1.74644 25.975 4.09239C25.975 6.4467 24.3313 8.18477 22.5094 8.18477C20.6776 8.18477 19.0339 6.4467 19.0339 4.09239C19.0339 1.74644 20.6776 0 22.5094 0ZM9.3402 0C11.172 0 12.8058 1.74644 12.8058 4.09239C12.8058 6.4467 11.172 8.18477 9.3402 8.18477C7.50839 8.18477 5.86571 6.4467 5.86571 4.09239C5.86571 1.74644 7.50839 0 9.3402 0ZM22.5094 10.1366C28.8465 10.3225 34.1933 10.3225 40.6096 10.527C43.6692 12.1814 45.0852 20.6581 44.996 23.6044L43.2534 25.2496C42.4909 21.2715 41.5305 15.9643 39.9363 14.7839V22.9259L40.3423 40H38.1441L36.4905 22.833H34.7082L33.0547 40H30.8466L31.2625 22.9259L30.4703 14.7003H27.5691L26.8562 22.898L27.2721 39.9721H25.064L23.4005 22.8051H21.6182L19.9548 39.9721H17.7566L18.1725 22.898L17.4496 14.7003H14.5485L13.7563 22.9259L14.1722 40H11.9641L10.3106 22.833H8.52826L6.85587 40H4.6577L5.07357 22.9259V14.7839C3.46951 15.9643 2.50905 21.2715 1.74662 25.2496L0.00392877 23.6044C-0.0851861 20.6581 1.34065 12.1814 4.39036 10.527C10.8254 10.3225 16.1723 10.3225 22.5094 10.1366Z" fill="white"/>
</svg>
