<svg width="50" height="42" viewBox="0 0 50 42" fill="none" xmlns="http://www.w3.org/2000/svg">
<path d="M39.6319 0C41.6672 0 43.4825 1.83377 43.4825 4.29701C43.4825 6.76903 41.6672 8.59401 39.6319 8.59401C37.5965 8.59401 35.7812 6.76903 35.7812 4.29701C35.7812 1.83377 37.5965 0 39.6319 0ZM25.0104 0C27.0348 0 28.8611 1.83377 28.8611 4.29701C28.8611 6.76903 27.0348 8.59401 25.0104 8.59401C22.9751 8.59401 21.1488 6.76903 21.1488 4.29701C21.1488 1.83377 22.9751 0 25.0104 0ZM10.378 0C12.4133 0 14.2286 1.83377 14.2286 4.29701C14.2286 6.76903 12.4133 8.59401 10.378 8.59401C8.34266 8.59401 6.51745 6.76903 6.51745 4.29701C6.51745 1.83377 8.34266 0 10.378 0ZM25.0104 10.6435C32.0516 10.8386 37.9926 10.8386 45.1218 11.0534C48.5214 12.7905 50.0946 21.691 49.9956 24.7846L48.0593 26.512C47.2121 22.3351 46.145 16.7625 44.3737 15.5231V24.0722L44.8247 42H42.3823L40.545 23.9746H38.5647L36.7274 42H34.274L34.7361 24.0722L33.8559 15.4353H30.6324L29.8402 24.0429L30.3023 41.9707H27.8489L26.0006 23.9453H24.0203L22.172 41.9707H19.7296L20.1916 24.0429L19.3885 15.4353H16.165L15.2848 24.0722L15.7469 42H13.2935L11.4562 23.9746H9.47584L7.61764 42H5.17523L5.63731 24.0722V15.5231C3.85501 16.7625 2.78783 22.3351 1.94069 26.512L0.0043653 24.7846C-0.0946512 21.691 1.48961 12.7905 4.87818 11.0534C12.0283 10.8386 17.9693 10.8386 25.0104 10.6435Z" fill="white"/>
</svg>
