<svg width="22" height="22" viewBox="0 0 22 22" fill="none" xmlns="http://www.w3.org/2000/svg">
<path d="M18.9842 6.45318C18.6725 6.76485 18.37 7.06735 18.3608 7.36985C18.3333 7.66318 18.645 7.96568 18.9383 8.24985C19.3783 8.70818 19.8092 9.12068 19.7908 9.56985C19.7725 10.019 19.305 10.4865 18.8375 10.9448L15.0517 14.7398L13.75 13.4382L17.6458 9.55152L16.7658 8.67152L15.4642 9.96402L12.0267 6.52652L15.5467 3.01568C15.9042 2.65818 16.5 2.65818 16.8392 3.01568L18.9842 5.16068C19.3417 5.49985 19.3417 6.09568 18.9842 6.45318ZM2.75 15.8123L11.5133 7.03985L14.9508 10.4773L6.1875 19.2498H2.75V15.8123Z" fill="white"/>
</svg>
