<svg width="39" height="35" viewBox="0 0 39 35" fill="none" xmlns="http://www.w3.org/2000/svg">
<path d="M20.3579 12.6316L26.1215 19.2842V18.9474C26.1215 17.2723 25.5469 15.6659 24.5239 14.4814C23.501 13.297 22.1136 12.6316 20.667 12.6316H20.3579ZM12.5397 14.3158L15.3579 17.5789C15.267 18.0211 15.2124 18.4632 15.2124 18.9474C15.2124 20.6224 15.7871 22.2289 16.81 23.4133C17.833 24.5977 19.2204 25.2632 20.667 25.2632C21.067 25.2632 21.467 25.2 21.8488 25.0947L24.667 28.3579C23.4488 29.0526 22.1034 29.4737 20.667 29.4737C18.2559 29.4737 15.9436 28.3647 14.2387 26.3906C12.5339 24.4165 11.5761 21.7391 11.5761 18.9474C11.5761 17.2842 11.9397 15.7263 12.5397 14.3158ZM2.48517 2.67368L6.63063 7.47368L7.44881 8.42105C4.44881 11.1579 2.08517 14.7368 0.666992 18.9474C3.81245 28.1895 11.5761 34.7368 20.667 34.7368C23.4852 34.7368 26.1761 34.1053 28.6306 32.9684L29.4124 33.8526L34.7215 40L37.0306 37.3263L4.79427 0M20.667 8.42105C23.0781 8.42105 25.3904 9.53007 27.0952 11.5041C28.8001 13.4782 29.7579 16.1556 29.7579 18.9474C29.7579 20.2947 29.5215 21.6 29.1034 22.7789L34.4306 28.9474C37.1579 26.3158 39.3397 22.8632 40.667 18.9474C37.5215 9.70526 29.7579 3.15789 20.667 3.15789C18.1215 3.15789 15.6852 3.68421 13.3943 4.63158L17.3397 9.15789C18.3761 8.69474 19.4852 8.42105 20.667 8.42105Z" fill="white"/>
</svg>
