<svg width="55" height="42" viewBox="0 0 55 42" fill="none" xmlns="http://www.w3.org/2000/svg">
<path d="M8.53875 29.909H12.9499V31.8016H5.66534V29.909L9.32433 26.6926C9.65113 26.3984 9.89267 26.1108 10.0494 25.8298C10.2062 25.549 10.2843 25.2571 10.2843 24.9538C10.2843 24.4859 10.1255 24.109 9.80765 23.8237C9.49449 23.5384 9.07592 23.3957 8.55227 23.3957C8.1494 23.3957 7.70859 23.4828 7.22964 23.6566C6.75068 23.8261 6.23826 24.08 5.69216 24.419V22.2254C6.27401 22.0339 6.84922 21.889 7.41778 21.7909C7.98611 21.6882 8.54333 21.6368 9.08932 21.6368C10.289 21.6368 11.2199 21.9 11.8823 22.4261C12.5492 22.9522 12.8826 23.6855 12.8826 24.6262C12.8826 25.1701 12.7417 25.6784 12.4598 26.1509C12.1779 26.6189 11.5847 27.2477 10.6805 28.0367L8.53898 29.9091M48.5718 33.6657C49.2475 33.8397 49.76 34.1428 50.1091 34.5754C50.4627 35.0034 50.6396 35.5493 50.6396 36.2137C50.6396 37.2034 50.259 37.9568 49.4982 38.4739C48.7373 38.9867 47.6272 39.2432 46.168 39.2432C45.6533 39.2432 45.1363 39.2007 44.6171 39.1159C44.0978 39.0345 43.5858 38.9115 43.0863 38.7481V36.7619C43.5699 37.0027 44.0488 37.1853 44.5232 37.3103C45.0021 37.4306 45.4719 37.4906 45.933 37.4906C46.618 37.4906 47.1416 37.3726 47.5042 37.1363C47.8712 36.9001 48.0548 36.5611 48.0548 36.1198C48.0548 35.665 47.8668 35.3217 47.4908 35.0899C47.1193 34.8536 46.5687 34.7355 45.8392 34.7354H44.8054V33.0771H45.893C46.542 33.0771 47.0255 32.9766 47.3432 32.776C47.6609 32.571 47.8199 32.2613 47.8199 31.8465C47.8199 31.463 47.6655 31.1666 47.3566 30.9571C47.0478 30.7475 46.6114 30.6428 46.0474 30.6428C45.6312 30.6428 45.2105 30.6896 44.7852 30.7834C44.3601 30.877 43.937 31.0151 43.5163 31.1979V29.3121C44.0145 29.1721 44.5214 29.0649 45.0337 28.9912C45.5228 28.9208 46.0164 28.8851 46.5106 28.8842C47.8132 28.8842 48.7867 29.0984 49.4314 29.5263C50.0803 29.9498 50.4048 30.5896 50.4048 31.4456C50.4048 32.0297 50.2503 32.5089 49.9415 32.8834C49.6326 33.2534 49.1761 33.5142 48.5719 33.6659M25.2154 11.7258H27.4982V5.27237L25.1549 5.754V4.00187L27.4848 3.52024H29.942V11.7256H32.2247V13.5044H25.2154V11.7258ZM55 42V25.5652H38.5V0H18.3333V18.2609H0V42H55Z" fill="#00EA83"/>
</svg>
