<svg width="41" height="42" viewBox="0 0 41 42" fill="none" xmlns="http://www.w3.org/2000/svg">
<path d="M0.597087 38.4064L20.1938 18.3491L17.3359 15.3823L15.8662 16.8657C15.6773 17.0594 15.453 17.2131 15.2061 17.3179C14.9591 17.4228 14.6944 17.4767 14.4271 17.4767C14.1597 17.4767 13.895 17.4228 13.648 17.3179C13.4011 17.2131 13.1768 17.0594 12.9879 16.8657L11.5386 15.3823C11.3493 15.1891 11.1992 14.9595 11.0968 14.7067C10.9943 14.454 10.9416 14.183 10.9416 13.9094C10.9416 13.6358 10.9943 13.3648 11.0968 13.1121C11.1992 12.8593 11.3493 12.6297 11.5386 12.4364L23.0925 0.611003C23.2813 0.417318 23.5057 0.263655 23.7526 0.158811C23.9995 0.0539667 24.2643 0 24.5316 0C24.799 0 25.0637 0.0539667 25.3106 0.158811C25.5576 0.263655 25.7819 0.417318 25.9707 0.611003L27.4201 2.0944C28.2162 2.90923 28.2162 4.22549 27.4201 5.04032L25.9707 6.48193L28.8694 9.46963C29.0583 9.27594 29.2826 9.12228 29.5295 9.01744C29.7765 8.91259 30.0412 8.85863 30.3086 8.85863C30.5759 8.85863 30.8406 8.91259 31.0876 9.01744C31.3345 9.12228 31.5588 9.27594 31.7477 9.46963C32.5438 10.2845 32.5438 11.6216 31.7477 12.4364L34.626 15.3823L36.0753 13.8989C36.8714 13.0841 38.1779 13.0841 38.974 13.8989L40.4029 15.3823C41.199 16.1972 41.199 17.5343 40.4029 18.3491L28.8694 30.1537C28.0733 30.9685 26.7669 30.9685 25.9707 30.1537L24.5418 28.6912C24.348 28.4984 24.1939 28.2678 24.0887 28.013C23.9835 27.7582 23.9293 27.4844 23.9293 27.2078C23.9293 26.9312 23.9835 26.6573 24.0887 26.4025C24.1939 26.1477 24.348 25.9171 24.5418 25.7244L25.9707 24.241L23.0925 21.2951L3.47535 41.3732C3.2865 41.5669 3.06219 41.7206 2.81524 41.8254C2.56829 41.9302 2.30357 41.9842 2.03622 41.9842C1.76887 41.9842 1.50415 41.9302 1.2572 41.8254C1.01026 41.7206 0.785938 41.5669 0.597087 41.3732C-0.199029 40.5584 -0.199029 39.2212 0.597087 38.4064ZM36.7285 35.7321C37.8113 35.7321 38.8498 36.1724 39.6154 36.956C40.381 37.7396 40.8112 38.8025 40.8112 39.9107V42H20.3979V39.9107C20.3979 38.8025 20.8281 37.7396 21.5937 36.956C22.3594 36.1724 23.3978 35.7321 24.4806 35.7321H36.7285Z" fill="#00EA83"/>
</svg>
