<svg width="49" height="51" viewBox="0 0 49 51" fill="none" xmlns="http://www.w3.org/2000/svg">
<path d="M20.2344 0V50.4359L35.7656 45.7224V4.71369L20.2344 0ZM37.7276 2.97434L37.7344 3.23183V6.51766H39.4844V2.97678L37.7276 2.97434ZM9.51562 2.97678V15.953H11.4844V4.96852H18.2656V2.97678H9.51562ZM37.7344 8.50941V10.2798H39.4844V8.50941H37.7344ZM37.7344 12.2716V38.3856H39.4844V12.2716H37.7344ZM11.4844 18.7699V22.6729H0.984375V27.763H11.4844V31.666L17.858 25.2179L11.4844 18.7699ZM23.1875 22.5623C23.9123 22.5623 24.5 23.7512 24.5 25.2179C24.5 26.6846 23.9123 27.8736 23.1875 27.8736C22.4627 27.8736 21.875 26.6846 21.875 25.2179C21.875 23.7512 22.4627 22.5623 23.1875 22.5623ZM11.4844 34.4829H9.51562V46.4632H11.4844V34.4829ZM37.7344 40.3774V41.9265H39.4844V40.3774H37.7344ZM37.7344 43.9182V46.4632H39.4844V43.9182H37.7344ZM0 49.0083V51H18.2656V49.0083H0ZM31.7901 49.0083L25.2276 51H49V49.0083H31.7901Z" fill="white"/>
</svg>
