<svg width="49" height="51" viewBox="0 0 49 51" fill="none" xmlns="http://www.w3.org/2000/svg">
<path d="M20.2344 0V49.8536L35.7656 45.1945V4.65927L20.2344 0ZM37.7276 2.94L37.7344 3.19452V6.44241H39.4844V2.94241L37.7276 2.94ZM9.51562 2.94241V15.7688H11.4844V4.91116H18.2656V2.94241H9.51562ZM37.7344 8.41116V10.1612H39.4844V8.41116H37.7344ZM37.7344 12.1299V37.9424H39.4844V12.1299H37.7344ZM11.4844 18.5532V22.4112H0.984375V27.4424H11.4844V31.3004L17.858 24.9268L11.4844 18.5532ZM23.1875 22.3018C23.9123 22.3018 24.5 23.477 24.5 24.9268C24.5 26.3765 23.9123 27.5518 23.1875 27.5518C22.4627 27.5518 21.875 26.3765 21.875 24.9268C21.875 23.477 22.4627 22.3018 23.1875 22.3018ZM11.4844 34.0848H9.51562V45.9268H11.4844V34.0848ZM37.7344 39.9112V41.4424H39.4844V39.9112H37.7344ZM37.7344 43.4112V45.9268H39.4844V43.4112H37.7344ZM0 48.4424V50.4112H18.2656V48.4424H0ZM31.7901 48.4424L25.2276 50.4112H49V48.4424H31.7901Z" fill="#00EA83"/>
</svg>
