<svg width="50" height="32" viewBox="0 0 50 32" fill="none" xmlns="http://www.w3.org/2000/svg">
<path d="M25 26.2857C22.775 26.2857 20.5999 25.6825 18.7498 24.5523C16.8998 23.4221 15.4578 21.8156 14.6064 19.9362C13.7549 18.0567 13.5321 15.9886 13.9662 13.9934C14.4002 11.9981 15.4717 10.1654 17.045 8.7269C18.6184 7.28842 20.6229 6.3088 22.8052 5.91192C24.9875 5.51505 27.2495 5.71874 29.3052 6.49724C31.3609 7.27574 33.1179 8.59409 34.354 10.2856C35.5902 11.977 36.25 13.9657 36.25 16C36.25 18.7279 35.0647 21.3442 32.955 23.2731C30.8452 25.202 27.9837 26.2857 25 26.2857ZM25 0C7.5 0 0 16 0 16C0 16 7.5 32 25 32C42.5 32 50 16 50 16C50 16 42.5 0 25 0Z" fill="black"/>
<ellipse cx="24.9997" cy="16" rx="6.66667" ry="6.85714" fill="black"/>
</svg>
